<svg width="80" height="80" viewBox="0 0 80 80" fill="none" xmlns="http://www.w3.org/2000/svg">
<circle cx="40" cy="40" r="38.5" fill="white" stroke="#0072FF" stroke-width="3"/>
<path d="M23 23V57H57V23H23ZM26.9844 49.0312H24.9922V47.0391H26.9844V49.0312ZM26.9844 45.0469H24.9922V34.9531H26.9844V45.0469ZM26.9844 32.9609H24.9922V30.9688H26.9844V32.9609ZM55.0078 55.0078H24.9922V51.0234H26.9844V53.0156H53.0156V26.9844H26.9844V28.9766H24.9922V24.9922H55.0078V55.0078ZM51.0234 37.0117H48.3565C47.2354 34.6583 44.8344 33.0273 42.0586 33.0273C38.2139 33.0273 35.0859 36.1553 35.0859 40C35.0859 43.8447 38.2139 46.9727 42.0586 46.9727C44.8344 46.9727 47.2354 45.3417 48.3565 42.9883H51.0234V51.0234H28.9766V28.9766H51.0234V37.0117ZM51.0234 40.9961H42.0586C41.5093 40.9961 41.0625 40.5492 41.0625 40C41.0625 39.4508 41.5093 39.0039 42.0586 39.0039H51.0234V40.9961ZM42.0586 42.9883H46.0384C45.129 44.1969 43.6842 44.9805 42.0586 44.9805C39.3124 44.9805 37.0781 42.7462 37.0781 40C37.0781 37.2538 39.3124 35.0195 42.0586 35.0195C43.6842 35.0195 45.1291 35.8031 46.0384 37.0117H42.0586C40.4109 37.0117 39.0703 38.3523 39.0703 40C39.0703 41.6477 40.4109 42.9883 42.0586 42.9883Z" fill="black"/>
</svg>
