<svg width="80" height="80" viewBox="0 0 80 80" fill="none" xmlns="http://www.w3.org/2000/svg">
<circle cx="40" cy="40" r="38.5" fill="white" stroke="#0072FF" stroke-width="3"/>
<path d="M34.4941 37.8453C32.6548 37.8453 31.1126 37.2316 29.8676 36.0041C28.6225 34.7482 28 33.221 28 31.4227C28 29.6243 28.6225 28.1114 29.8676 26.884C31.1126 25.628 32.6548 25 34.4941 25C36.3333 25 37.8755 25.628 39.1205 26.884C40.3656 28.1114 40.9881 29.6243 40.9881 31.4227C40.9881 33.221 40.3797 34.7482 39.163 36.0041C37.9462 37.2316 36.3899 37.8453 34.4941 37.8453ZM31.7776 34.163C32.485 34.9052 33.3905 35.2762 34.4941 35.2762C35.5976 35.2762 36.5031 34.9052 37.2105 34.163C37.9179 33.4208 38.2716 32.5074 38.2716 31.4227C38.2716 30.3379 37.9179 29.4245 37.2105 28.6823C36.5031 27.9401 35.5976 27.5691 34.4941 27.5691C33.3905 27.5691 32.485 27.9401 31.7776 28.6823C31.0702 29.4245 30.7165 30.3379 30.7165 31.4227C30.7165 32.5074 31.0702 33.4208 31.7776 34.163ZM29.4856 51.4185L49.3922 28.8536L51.2173 29.8812L31.2683 52.4461L29.4856 51.4185ZM51.1324 54.1588C49.8874 55.3863 48.3452 56 46.5059 56C44.6667 56 43.1245 55.3863 41.8795 54.1588C40.6344 52.9029 40.0119 51.3757 40.0119 49.5773C40.0119 47.779 40.6344 46.2661 41.8795 45.0387C43.1245 43.7827 44.6667 43.1547 46.5059 43.1547C48.3452 43.1547 49.8874 43.7827 51.1324 45.0387C52.3775 46.2661 53 47.779 53 49.5773C53 51.3757 52.3775 52.9029 51.1324 54.1588ZM43.7895 52.3177C44.4969 53.0599 45.4024 53.4309 46.5059 53.4309C47.6095 53.4309 48.515 53.0599 49.2224 52.3177C49.9298 51.5755 50.2835 50.6621 50.2835 49.5773C50.2835 48.4926 49.9298 47.5792 49.2224 46.837C48.515 46.0948 47.6095 45.7238 46.5059 45.7238C45.4024 45.7238 44.4969 46.0948 43.7895 46.837C43.0821 47.5792 42.7284 48.4926 42.7284 49.5773C42.7284 50.6621 43.0821 51.5755 43.7895 52.3177Z" fill="black"/>
</svg>
