<svg width="165" height="40" viewBox="0 0 165 40" fill="none" xmlns="http://www.w3.org/2000/svg">
<g clip-path="url(#clip0)">
<path d="M23.6576 11.5335L18.9882 11.5312L18.4632 10.5947L13.6435 1.99999L29 1.99999L23.6576 11.5335Z" fill="#0072FF"/>
<path d="M28.9908 39L13.6528 39L18.4633 30.4195L18.9975 29.4664L23.6507 29.4664L28.9908 39Z" fill="#0072FF"/>
<path d="M11.3424 38.9809L6.00001 29.4474L11.0209 20.4881L6.00233 11.5312L11.3424 1.99999L11.3956 2.09769L16.6848 11.5288L21.7057 20.4905L16.6848 29.4474L11.3956 38.8856L11.3424 38.9809Z" fill="url(#paint0_linear)"/>
</g>
<path d="M54.56 13V15.64H50.78V27H48.02V15.64H44.26V13H54.56ZM64.7108 19.74C65.9374 20.4467 66.5508 21.5133 66.5508 22.94C66.5508 24.1267 66.1308 25.1 65.2908 25.86C64.4508 26.62 63.4174 27 62.1908 27H56.2508V13H61.7708C62.9708 13 63.9774 13.3733 64.7908 14.12C65.6174 14.8533 66.0308 15.7933 66.0308 16.94C66.0308 18.1 65.5908 19.0333 64.7108 19.74ZM61.7708 15.58H59.0108V18.66H61.7708C62.1974 18.66 62.5508 18.5133 62.8308 18.22C63.1241 17.9267 63.2708 17.56 63.2708 17.12C63.2708 16.68 63.1308 16.3133 62.8508 16.02C62.5708 15.7267 62.2108 15.58 61.7708 15.58ZM62.1908 24.42C62.6574 24.42 63.0441 24.2667 63.3508 23.96C63.6574 23.64 63.8108 23.24 63.8108 22.76C63.8108 22.2933 63.6574 21.9067 63.3508 21.6C63.0441 21.28 62.6574 21.12 62.1908 21.12H59.0108V24.42H62.1908ZM75.1502 27.28C73.0435 27.28 71.3035 26.58 69.9302 25.18C68.5568 23.78 67.8702 22.0533 67.8702 20C67.8702 17.9333 68.5568 16.2067 69.9302 14.82C71.3035 13.42 73.0435 12.72 75.1502 12.72C76.4168 12.72 77.5835 13.02 78.6502 13.62C79.7302 14.2067 80.5702 15.0067 81.1702 16.02L78.7902 17.4C78.4435 16.7733 77.9502 16.2867 77.3102 15.94C76.6702 15.58 75.9502 15.4 75.1502 15.4C73.7902 15.4 72.6902 15.8267 71.8502 16.68C71.0235 17.5333 70.6102 18.64 70.6102 20C70.6102 21.3467 71.0235 22.4467 71.8502 23.3C72.6902 24.1533 73.7902 24.58 75.1502 24.58C75.9502 24.58 76.6702 24.4067 77.3102 24.06C77.9635 23.7 78.4568 23.2133 78.7902 22.6L81.1702 23.98C80.5702 24.9933 79.7368 25.8 78.6702 26.4C77.6035 26.9867 76.4302 27.28 75.1502 27.28ZM89.5189 27.28C87.4122 27.28 85.6722 26.58 84.2989 25.18C82.9256 23.78 82.2389 22.0533 82.2389 20C82.2389 17.9333 82.9256 16.2067 84.2989 14.82C85.6722 13.42 87.4122 12.72 89.5189 12.72C90.7856 12.72 91.9522 13.02 93.0189 13.62C94.0989 14.2067 94.9389 15.0067 95.5389 16.02L93.1589 17.4C92.8122 16.7733 92.3189 16.2867 91.6789 15.94C91.0389 15.58 90.3189 15.4 89.5189 15.4C88.1589 15.4 87.0589 15.8267 86.2189 16.68C85.3922 17.5333 84.9789 18.64 84.9789 20C84.9789 21.3467 85.3922 22.4467 86.2189 23.3C87.0589 24.1533 88.1589 24.58 89.5189 24.58C90.3189 24.58 91.0389 24.4067 91.6789 24.06C92.3322 23.7 92.8256 23.2133 93.1589 22.6L95.5389 23.98C94.9389 24.9933 94.1056 25.8 93.0389 26.4C91.9722 26.9867 90.7989 27.28 89.5189 27.28ZM105.451 24.36H111.351V27H102.691V13H111.251V15.64H105.451V18.62H110.751V21.22H105.451V24.36ZM118.886 16.72C119.979 16.72 120.879 17.0867 121.586 17.82C122.306 18.5533 122.666 19.5667 122.666 20.86V27H120.086V21.18C120.086 20.5133 119.906 20.0067 119.546 19.66C119.186 19.3 118.706 19.12 118.106 19.12C117.439 19.12 116.906 19.3267 116.506 19.74C116.106 20.1533 115.906 20.7733 115.906 21.6V27H113.326V17H115.906V18.12C116.533 17.1867 117.526 16.72 118.886 16.72ZM132.679 17H135.199V26.52C135.199 28.0667 134.686 29.2467 133.659 30.06C132.646 30.8733 131.419 31.28 129.979 31.28C128.899 31.28 127.946 31.0733 127.119 30.66C126.306 30.2467 125.679 29.64 125.239 28.84L127.439 27.58C127.946 28.5133 128.819 28.98 130.059 28.98C130.872 28.98 131.512 28.7667 131.979 28.34C132.446 27.9133 132.679 27.3067 132.679 26.52V25.44C131.919 26.4533 130.852 26.96 129.479 26.96C128.066 26.96 126.879 26.4667 125.919 25.48C124.972 24.48 124.499 23.2667 124.499 21.84C124.499 20.4267 124.979 19.22 125.939 18.22C126.899 17.22 128.079 16.72 129.479 16.72C130.852 16.72 131.919 17.2267 132.679 18.24V17ZM127.859 23.82C128.392 24.3267 129.066 24.58 129.879 24.58C130.692 24.58 131.359 24.3267 131.879 23.82C132.412 23.3 132.679 22.64 132.679 21.84C132.679 21.0533 132.412 20.4067 131.879 19.9C131.359 19.38 130.692 19.12 129.879 19.12C129.066 19.12 128.392 19.38 127.859 19.9C127.339 20.4067 127.079 21.0533 127.079 21.84C127.079 22.64 127.339 23.3 127.859 23.82ZM138.969 15.8C138.542 15.8 138.169 15.6467 137.849 15.34C137.542 15.02 137.389 14.6467 137.389 14.22C137.389 13.7933 137.542 13.42 137.849 13.1C138.169 12.78 138.542 12.62 138.969 12.62C139.409 12.62 139.782 12.78 140.089 13.1C140.409 13.42 140.569 13.7933 140.569 14.22C140.569 14.6467 140.409 15.02 140.089 15.34C139.782 15.6467 139.409 15.8 138.969 15.8ZM137.689 27V17H140.269V27H137.689ZM148.34 16.72C149.433 16.72 150.333 17.0867 151.04 17.82C151.76 18.5533 152.12 19.5667 152.12 20.86V27H149.54V21.18C149.54 20.5133 149.36 20.0067 149 19.66C148.64 19.3 148.16 19.12 147.56 19.12C146.893 19.12 146.36 19.3267 145.96 19.74C145.56 20.1533 145.36 20.7733 145.36 21.6V27H142.78V17H145.36V18.12C145.987 17.1867 146.98 16.72 148.34 16.72ZM156.653 23.06C157 24.3133 157.94 24.94 159.473 24.94C160.46 24.94 161.206 24.6067 161.713 23.94L163.793 25.14C162.806 26.5667 161.353 27.28 159.433 27.28C157.78 27.28 156.453 26.78 155.453 25.78C154.453 24.78 153.953 23.52 153.953 22C153.953 20.4933 154.446 19.24 155.433 18.24C156.42 17.2267 157.686 16.72 159.233 16.72C160.7 16.72 161.906 17.2267 162.853 18.24C163.813 19.2533 164.293 20.5067 164.293 22C164.293 22.3333 164.26 22.6867 164.193 23.06H156.653ZM156.613 21.06H161.713C161.566 20.38 161.26 19.8733 160.793 19.54C160.34 19.2067 159.82 19.04 159.233 19.04C158.54 19.04 157.966 19.22 157.513 19.58C157.06 19.9267 156.76 20.42 156.613 21.06Z" fill="black"/>
<defs>
<linearGradient id="paint0_linear" x1="21.7057" y1="38.9095" x2="-2.31327" y2="17.1472" gradientUnits="userSpaceOnUse">
<stop stop-color="#00C6FF"/>
<stop offset="1" stop-color="#0072FF"/>
</linearGradient>
<clipPath id="clip0">
<rect width="37" height="23" fill="white" transform="translate(29 1.99999) rotate(90)"/>
</clipPath>
</defs>
</svg>
