<svg width="80" height="80" viewBox="0 0 80 80" fill="none" xmlns="http://www.w3.org/2000/svg">
<circle cx="40" cy="40" r="38.5" fill="white" stroke="#0072FF" stroke-width="3"/>
<path d="M54.968 30.0819L59.876 25.174L56.1682 23.7078L54.7021 20L49.7941 24.908V28.6731L48.8703 29.5969C46.4567 27.4971 43.3058 26.2241 39.863 26.2241C32.2868 26.2241 26.123 32.3879 26.123 39.9641C26.123 43.518 27.4793 46.761 29.7014 49.2029L26.3131 52.5912L27.7219 54L31.1454 50.5765C33.5189 52.5297 36.5563 53.7041 39.863 53.7041C43.1722 53.7041 46.2119 52.528 48.5862 50.572L52.0142 54L53.423 52.5912L50.0295 49.1976C52.2487 46.7563 53.603 43.5154 53.603 39.9641C53.603 36.5462 52.3482 33.416 50.2756 31.0093L51.2029 30.0819H54.968ZM51.7864 25.7332L53.9652 23.5545L54.633 25.2431L56.3214 25.9108L54.1427 28.0896H51.7864V25.7332ZM51.6106 39.9641C51.6106 46.4418 46.3407 51.7117 39.863 51.7117C33.3854 51.7117 28.1154 46.4418 28.1154 39.9641C28.1154 33.4864 33.3854 28.2165 39.863 28.2165C42.7564 28.2165 45.4083 29.2685 47.4578 31.0094L45.4759 32.9913C43.9392 31.7518 41.9864 31.0085 39.863 31.0085C34.9249 31.0085 30.9075 35.026 30.9075 39.9641C30.9075 44.9022 34.9249 48.9196 39.863 48.9196C44.8011 48.9196 48.8185 44.9022 48.8185 39.9641C48.8185 37.8657 48.0927 35.9337 46.8794 34.4054L48.8625 32.4223C50.5766 34.4645 51.6106 37.0956 51.6106 39.9641ZM46.8261 39.9641C46.8261 43.8036 43.7025 46.9272 39.863 46.9272C36.0235 46.9272 32.8999 43.8036 32.8999 39.9641C32.8999 36.1246 36.0235 33.001 39.863 33.001C41.4367 33.001 42.89 33.526 44.0574 34.4098L42.0972 36.3701C41.4482 35.9652 40.6827 35.7304 39.8631 35.7304C37.5286 35.7304 35.6293 37.6297 35.6293 39.9642C35.6293 42.2987 37.5285 44.198 39.8631 44.198C42.1976 44.198 44.0969 42.2987 44.0969 39.9642C44.0969 39.1699 43.8766 38.4263 43.4946 37.7904L45.4594 35.8257C46.3177 36.9834 46.8261 38.4154 46.8261 39.9641ZM42.1044 39.9641C42.1044 41.2 41.0989 42.2055 39.8629 42.2055C38.627 42.2055 37.6215 41.2 37.6215 39.9641C37.6215 38.7282 38.627 37.7227 39.8629 37.7227C40.1265 37.7227 40.3794 37.7688 40.6145 37.8527L39.2075 39.2597L40.6163 40.6685L41.9992 39.2857C42.0673 39.4998 42.1044 39.7277 42.1044 39.9641Z" fill="black"/>
</svg>
