<svg width="80" height="80" viewBox="0 0 80 80" fill="none" xmlns="http://www.w3.org/2000/svg">
<circle cx="40" cy="40" r="38.5" fill="white" stroke="#0072FF" stroke-width="3"/>
<path d="M41.2852 35.788L38.5497 38.4908L36.9706 36.8977C36.8163 36.7446 36.6083 36.6592 36.3919 36.6601C36.1755 36.661 35.9682 36.7481 35.8152 36.9025C35.6622 37.0568 35.5758 37.266 35.575 37.4843C35.5741 37.7026 35.6587 37.9124 35.8105 38.0681L37.9638 40.2405C38.1166 40.3946 38.3235 40.4817 38.5396 40.4829C38.7557 40.484 38.9635 40.3991 39.1179 40.2465L42.4333 36.9707C42.5103 36.8946 42.5717 36.804 42.6139 36.704C42.6562 36.6041 42.6785 36.4967 42.6796 36.388C42.6808 36.2793 42.6607 36.1714 42.6205 36.0706C42.5803 35.9697 42.5208 35.8779 42.4454 35.8002C42.37 35.7225 42.2802 35.6606 42.1811 35.618C42.082 35.5753 41.9756 35.5528 41.8678 35.5517C41.7601 35.5505 41.6532 35.5708 41.5532 35.6114C41.4533 35.6519 41.3622 35.7119 41.2852 35.788Z" fill="black"/>
<path d="M60.5434 49.8748L51.2451 38.3035C51.1251 38.1544 50.9574 38.0522 50.7708 38.0144C50.369 35.0397 48.9123 32.3127 46.6706 30.3383C44.4289 28.3639 41.5539 27.276 38.5781 27.2759C31.7933 27.2759 26.2734 32.8447 26.2734 39.6897C26.2734 46.5346 31.7933 52.1035 38.5781 52.1035C40.7587 52.1067 42.9006 51.5225 44.7825 50.4113L50.7728 57.866C50.9098 58.0365 51.1083 58.1451 51.3247 58.1679C51.541 58.1907 51.7575 58.1259 51.9265 57.9877L60.4228 51.0388C60.5918 50.9006 60.6995 50.7003 60.7221 50.482C60.7447 50.2637 60.6804 50.0453 60.5434 49.8748ZM38.5781 50.4483C32.6979 50.4483 27.9141 45.622 27.9141 39.6897C27.9141 33.7573 32.6979 28.9311 38.5781 28.9311C43.8384 28.9311 48.3046 32.8511 49.1112 38.0064L47.4489 38.0173C47.0617 35.9292 45.963 34.0434 44.3431 32.6863C42.7231 31.3293 40.6838 30.5864 38.5781 30.5862C33.6026 30.5862 29.5547 34.67 29.5547 39.6897C29.5547 44.7093 33.6026 48.7931 38.5781 48.7931C40.0049 48.7937 41.4115 48.4524 42.6819 47.7973L43.7347 49.1076C42.1567 49.9893 40.382 50.4507 38.5781 50.4483ZM41.3099 45.5966C41.2836 45.7179 41.2848 45.8436 41.3132 45.9643C41.3416 46.0851 41.3965 46.1979 41.474 46.2943L41.6205 46.4766C40.9164 46.7979 40.1665 47.0054 39.3984 47.0914V45.7586C39.3984 45.5391 39.312 45.3286 39.1582 45.1734C39.0043 45.0182 38.7957 44.931 38.5781 44.931C38.3606 44.931 38.1519 45.0182 37.9981 45.1734C37.8442 45.3286 37.7578 45.5391 37.7578 45.7586V47.0917C36.0944 46.9016 34.5442 46.1478 33.3605 44.9536C32.1767 43.7594 31.4296 42.1954 31.2411 40.5173H32.5625C32.7801 40.5173 32.9887 40.4301 33.1425 40.2749C33.2964 40.1197 33.3828 39.9092 33.3828 39.6897C33.3828 39.4702 33.2964 39.2597 33.1425 39.1045C32.9887 38.9493 32.7801 38.8621 32.5625 38.8621H31.2411C31.4296 37.184 32.1767 35.62 33.3605 34.4257C34.5442 33.2315 36.0944 32.4777 37.7578 32.2876V33.6207C37.7578 33.8402 37.8442 34.0507 37.9981 34.2059C38.1519 34.3611 38.3606 34.4483 38.5781 34.4483C38.7957 34.4483 39.0043 34.3611 39.1582 34.2059C39.312 34.0507 39.3984 33.8402 39.3984 33.6207V32.2868C40.9224 32.4532 42.3567 33.0961 43.5006 34.1255C44.6445 35.155 45.4406 36.5196 45.7777 38.0282L43.5991 38.0424C43.4128 38.0437 43.2325 38.1088 43.0878 38.2271C42.9431 38.3455 42.8426 38.51 42.8029 38.6936L41.3099 45.5966ZM51.5306 56.1808L42.9969 45.561L44.266 39.6933L50.2188 39.6544L58.7524 50.2743L51.5306 56.1808Z" fill="black"/>
<path d="M49.2597 44.5435L49.0875 44.3292C48.9504 44.1587 48.7519 44.0501 48.5355 44.0273C48.3191 44.0045 48.1026 44.0693 47.9336 44.2075C47.7646 44.3457 47.657 44.546 47.6343 44.7643C47.6117 44.9826 47.676 45.2011 47.813 45.3716L47.9907 45.5931C47.5326 46.0365 47.2622 46.6413 47.2358 47.2812C47.2094 47.9211 47.4291 48.5465 47.8491 49.0267C48.2691 49.5069 48.8568 49.8048 49.4894 49.8582C50.122 49.9115 50.7505 49.7161 51.2436 49.3128L52.1465 48.5745C52.2302 48.506 52.3265 48.4548 52.4298 48.4239C52.5331 48.393 52.6415 48.3829 52.7487 48.3942C52.8559 48.4056 52.9598 48.4381 53.0545 48.49C53.1492 48.5419 53.2329 48.6121 53.3007 48.6966L53.3435 48.7499C53.4803 48.9205 53.5444 49.1388 53.5218 49.357C53.4992 49.5753 53.3917 49.7755 53.2229 49.9139L51.8842 51.0088C51.8594 51.0291 51.8309 51.0441 51.8003 51.0531C51.7698 51.0621 51.7377 51.0649 51.706 51.0612C51.6744 51.0576 51.6438 51.0476 51.616 51.0319C51.5882 51.0162 51.5638 50.995 51.5442 50.9697L51.5004 50.9132C51.4344 50.8265 51.3521 50.754 51.2581 50.6996C51.1642 50.6452 51.0605 50.6102 50.9531 50.5964C50.8457 50.5827 50.7366 50.5906 50.6322 50.6196C50.5278 50.6486 50.4301 50.6981 50.3448 50.7654C50.2595 50.8327 50.1882 50.9164 50.1351 51.0116C50.082 51.1068 50.0481 51.2117 50.0353 51.3202C50.0226 51.4287 50.0313 51.5386 50.0609 51.6437C50.0905 51.7488 50.1405 51.847 50.2079 51.9325L50.2514 51.9887C50.4046 52.1879 50.5959 52.3541 50.814 52.4773C51.0321 52.6005 51.2724 52.6782 51.5208 52.7059C51.5928 52.7143 51.6651 52.7184 51.7375 52.7184C52.1674 52.7187 52.5843 52.569 52.9174 52.2948L53.1941 52.0685L53.3663 52.2828C53.5035 52.4525 53.7019 52.5604 53.9178 52.5828C54.1338 52.6053 54.3498 52.5404 54.5185 52.4025C54.6871 52.2645 54.7947 52.0647 54.8176 51.8469C54.8405 51.6291 54.7769 51.411 54.6407 51.2404L54.4586 51.014C54.8829 50.5787 55.1336 50.0011 55.163 49.3913C55.1923 48.7815 54.9983 48.1822 54.6178 47.7074L54.575 47.6541C54.3715 47.4009 54.1205 47.1905 53.8364 47.0351C53.5523 46.8797 53.2407 46.7822 52.9192 46.7483C52.5978 46.7144 52.2729 46.7447 51.9631 46.8375C51.6533 46.9303 51.3646 47.0837 51.1136 47.289L50.2107 48.0274C50.0417 48.1656 49.8252 48.2304 49.6088 48.2076C49.3925 48.1847 49.1939 48.0761 49.0569 47.9056C48.9199 47.7351 48.8557 47.5167 48.8783 47.2984C48.901 47.0801 49.0086 46.8798 49.1776 46.7416L49.6551 46.3511H49.6555L50.4948 45.6647C50.5199 45.6441 50.5489 45.6289 50.58 45.6199C50.6111 45.611 50.6437 45.6085 50.6758 45.6126C50.7079 45.6167 50.7389 45.6273 50.7668 45.6437C50.7947 45.6602 50.8191 45.6823 50.8383 45.7085C50.968 45.8848 51.1617 46.0019 51.3769 46.0341C51.5921 46.0662 51.8112 46.0108 51.986 45.8801C52.1607 45.7493 52.2768 45.5538 52.3087 45.3367C52.3406 45.1196 52.2857 44.8986 52.156 44.7223C52.0049 44.5167 51.814 44.3441 51.595 44.2149C51.3759 44.0857 51.1332 44.0025 50.8815 43.9704C50.6298 43.9383 50.3742 43.958 50.1302 44.0282C49.8862 44.0983 49.6588 44.2176 49.4617 44.3788L49.2597 44.5435Z" fill="black"/>
</svg>
