<svg width="56" height="56" viewBox="0 0 56 56" fill="none" xmlns="http://www.w3.org/2000/svg">
<path d="M28.289 7.20044C25.9487 7.20044 24.0516 9.0976 24.0516 11.4379C24.0516 13.7781 25.9487 15.6753 28.289 15.6753C30.6293 15.6753 32.5264 13.7781 32.5264 11.4379C32.5238 9.09876 30.6282 7.20315 28.289 7.20044ZM28.289 13.0946C27.374 13.0946 26.6322 12.3528 26.6322 11.4379C26.6322 10.5229 27.374 9.78108 28.289 9.78108C29.204 9.78108 29.9458 10.5229 29.9458 11.4379C29.9447 12.3524 29.2036 13.0936 28.289 13.0946Z" fill="#0072FF"/>
<path d="M54.6992 46.2217C54.6985 46.2217 54.6975 46.2217 54.6968 46.2217H51.3548V20.4152H53.657C54.3695 20.4152 54.9677 19.8937 54.9677 19.1812V13.287C54.9635 12.7689 54.6521 12.3028 54.1751 12.1008L28.8019 1.23704C28.4768 1.09807 28.1088 1.09807 27.7836 1.23704L2.43768 12.1008C1.96813 12.3066 1.66826 12.7745 1.67742 13.287V19.1812C1.66052 19.8459 2.18581 20.3986 2.85058 20.4155C2.87406 20.4161 2.89742 20.416 2.9209 20.4152H5.29032V46.2217H1.30323C0.592129 46.213 0.00864516 46.7826 0 47.4938C0 47.4946 0 47.4955 0 47.4963V53.633C0 54.3457 0.590194 54.8668 1.30323 54.8668H54.6968C55.4094 54.8668 56 54.3457 56 53.633V47.4963C55.9928 46.7852 55.4104 46.2145 54.6992 46.2217ZM4.25806 17.8346V14.1381L28.3226 3.82684L52.3871 14.1381V17.8346H4.25806ZM48.7742 20.4152V46.2217H42.4516V20.4152H48.7742ZM39.871 20.4152V46.2217H33.6774V20.4152H39.871ZM31.0968 20.4152V46.2217H24.9032V20.4152H31.0968ZM22.3226 20.4152V46.2217H16.129V20.4152H22.3226ZM13.5484 20.4152V46.2217H7.87097V20.4152H13.5484ZM53.4194 52.2862H2.58065V48.8023H53.4194V52.2862Z" fill="#0072FF"/>
</svg>
