<svg width="54" height="54" viewBox="0 0 54 54" fill="none" xmlns="http://www.w3.org/2000/svg">
<g clip-path="url(#clip0)">
<path d="M45.1549 14.0667H1.06604V36.8222H45.1549V14.0667Z" stroke="#0072FF" stroke-width="2.13333"/>
<path d="M25.816 27.1709C25.816 27.8156 25.6074 28.3428 25.1902 28.7524C24.7806 29.1544 24.242 29.3971 23.5746 29.4805V30.4932H22.835V29.4919C22.2054 29.454 21.6668 29.2833 21.2194 28.9799C20.7718 28.6765 20.4494 28.2631 20.2523 27.7397L21.3787 27.0912C21.6441 27.7587 22.1296 28.1304 22.835 28.2062V25.8397C22.4937 25.7107 22.2168 25.5969 22.0044 25.4983C21.792 25.3921 21.5644 25.248 21.3218 25.066C21.0866 24.8839 20.9083 24.6639 20.787 24.4061C20.6732 24.1405 20.6163 23.8333 20.6163 23.4845C20.6163 22.8473 20.8287 22.3315 21.2535 21.9371C21.6782 21.5427 22.2054 21.3151 22.835 21.2544V20.2532H23.5746V21.2658C24.5909 21.4023 25.2963 21.9219 25.6908 22.8245L24.5872 23.4617C24.3899 22.9686 24.0524 22.6691 23.5746 22.5629V24.8157C23.8172 24.9067 23.9993 24.9788 24.1207 25.0318C24.2496 25.0849 24.4165 25.1645 24.6213 25.2708C24.8337 25.377 24.9968 25.4831 25.1106 25.5893C25.2243 25.6956 25.3419 25.8245 25.4633 25.9762C25.5922 26.1279 25.6832 26.3061 25.7363 26.5109C25.7894 26.7082 25.816 26.9281 25.816 27.1709ZM21.9248 23.4845C21.9248 23.7196 21.9931 23.913 22.1296 24.0647C22.2737 24.2165 22.5088 24.3681 22.835 24.5198V22.5401C22.5543 22.5856 22.3306 22.6918 22.1637 22.8587C22.0044 23.0255 21.9248 23.2341 21.9248 23.4845ZM23.5746 28.1949C23.8779 28.1341 24.1093 28.0128 24.2686 27.8308C24.4279 27.6487 24.5075 27.4325 24.5075 27.1822C24.5075 26.9319 24.4316 26.7309 24.28 26.5792C24.1283 26.4199 23.8931 26.2682 23.5746 26.1241V28.1949Z" fill="#0072FF"/>
<path d="M23.1109 33.2665C27.431 33.2665 30.9331 29.7644 30.9331 25.4443C30.9331 21.1242 27.431 17.6221 23.1109 17.6221C18.7908 17.6221 15.2887 21.1242 15.2887 25.4443C15.2887 29.7644 18.7908 33.2665 23.1109 33.2665Z" stroke="#0072FF" stroke-width="2.13333"/>
<path d="M53.333 26.3333H37.333V44.9999H53.333V26.3333Z" fill="white"/>
<path d="M51.3778 33.6221H39.2889V43.0443H51.3778V33.6221Z" stroke="#0072FF" stroke-width="2.13333"/>
<path d="M49.778 32.5558C49.778 30.1012 47.7882 28.1113 45.3336 28.1113C42.879 28.1113 40.8892 30.1012 40.8892 32.5558" stroke="#0072FF" stroke-width="2.13333"/>
<path d="M45.3327 38.7778C45.8237 38.7778 46.2216 38.3798 46.2216 37.8889C46.2216 37.398 45.8237 37 45.3327 37C44.8418 37 44.4438 37.398 44.4438 37.8889C44.4438 38.3798 44.8418 38.7778 45.3327 38.7778Z" fill="#0072FF"/>
<path d="M45.3332 39.6664V37.8887" stroke="#0072FF" stroke-width="0.888889"/>
</g>
<defs>
<clipPath id="clip0">
<rect width="53.3333" height="32" fill="white" transform="translate(-0.000183105 13)"/>
</clipPath>
</defs>
</svg>
