<svg width="125" height="124" viewBox="0 0 125 124" fill="none" xmlns="http://www.w3.org/2000/svg">
<g clip-path="url(#clip0)">
<path d="M62.5 0C28.2581 0 0.5 27.7581 0.5 62C0.5 96.2419 28.2581 124 62.5 124C96.7419 124 124.5 96.2419 124.5 62C124.5 27.7581 96.7419 0 62.5 0Z" fill="#40B3E0"/>
<path d="M92.6683 35.6645L81.5941 91.498C81.5941 91.498 80.0455 95.3701 75.7864 93.5115L50.2317 73.9195L40.9395 69.4284L25.2971 64.1623C25.2971 64.1623 22.8965 63.3107 22.664 61.4522C22.4315 59.5936 25.3746 58.5871 25.3746 58.5871L87.5567 34.194C87.5567 34.194 92.6678 31.9484 92.6678 35.6655" fill="white"/>
<path d="M48.268 90.8702C48.268 90.8702 47.5221 90.8005 46.5921 87.8574C45.6636 84.9149 40.9395 69.4274 40.9395 69.4274L78.4969 45.5768C78.4969 45.5768 80.6655 44.2603 80.588 45.5768C80.588 45.5768 80.975 45.8093 79.813 46.8934C78.6519 47.9779 50.3097 73.4545 50.3097 73.4545" fill="#D2E5F1"/>
<path d="M60.0301 81.4308L49.9227 90.6465C49.9227 90.6465 49.1322 91.2461 48.2681 90.8703L50.2036 73.7524" fill="#B5CFE4"/>
</g>
<defs>
<clipPath id="clip0">
<rect width="124" height="124" fill="white" transform="translate(0.5)"/>
</clipPath>
</defs>
</svg>
